<?xml version="1.0" encoding="utf-8"?>
<!-- Generator: Adobe Illustrator 25.0.0, SVG Export Plug-In . SVG Version: 6.00 Build 0)  -->
<svg version="1.1" id="Lag_1" xmlns="http://www.w3.org/2000/svg" xmlns:xlink="http://www.w3.org/1999/xlink" x="0px" y="0px"
	 viewBox="0 0 517.5 170.6" style="enable-background:new 0 0 517.5 170.6;" xml:space="preserve">
<style type="text/css">
	.st0{fill:none;}
	.st1{font-family:'ArialMT';}
	.st2{font-size:36px;}
	.st3{fill:none;stroke:#936037;stroke-width:2;stroke-miterlimit:10;}
	.st4{font-size:31px;}
</style>
<rect x="88.1" y="89" class="st0" width="340.4" height="77.9"/>
<text transform="matrix(1.0952 0 0 1 94.5861 114.5596)" class="st1 st2">AARHUS KOLLEGIET</text>
<polyline class="st0" points="37.1,143 37.1,44.6 55.9,44.6 128.1,74 128.1,78.9 134.7,78.9 178.7,96.2 222.6,96.2 230.1,91 
	255.1,91 263.1,101 267.8,107 292.6,107 292.6,98.3 335.1,99 335.1,91.2 362.1,91 366.1,95.8 376.1,80 505.1,79 505.1,59.5 
	548.1,60.8 548.1,140.3 "/>
<polyline class="st3" points="3.1,168.1 3.1,102.4 3.1,5.8 22.3,5.8 95.6,36.5 92.7,42.6 99.8,42.6 140.6,58.5 187.6,57.5 
	194.6,51.5 223.6,51.5 228.6,63.5 261.6,63.5 261.6,58.8 297.6,58.5 303.6,51.1 326.6,51.5 331.2,54.1 342.2,42.6 471.5,42.6 
	471.5,20.7 514.1,21.3 514.1,105 514.1,155.2 514.1,168.1 "/>
<rect x="98.8" y="136" class="st0" width="309" height="39.2"/>
<text transform="matrix(1 0 0 1 180.2579 158.0098)" class="st1 st4">BRABRAND</text>
</svg>
